# xmcd CD database file
#
# Track frame offsets:
#	150
#	21062
#	41250
#	57815
#	77540
#	94801
#	112881
#	133119
#	152472
#	170464
#
# Disc length: 2515 seconds
#
# Revision: 0
# Processed by: cddbd v1.5.2PL0 Copyright (c) Steve Scherf et al.
# Submitted via: CDex 1.51
#
DISCID=6a09d10a
DTITLE=La Makina - Le cantan a los temerarios
DYEAR=2003
DGENRE=Salsa
TTITLE0=Corazon de otro
TTITLE1=Tu me vas a llorar
TTITLE2=Soy un solitario
TTITLE3=Fue un juego
TTITLE4=Voy a  quererte mas
TTITLE5=Una tarde fue
TTITLE6=Al otro lado del sol
TTITLE7=Acepta mi error
TTITLE8=Mi secreto
TTITLE9=Eres un angel
EXTD=YEAR: 2003
EXTT0=
EXTT1=
EXTT2=
EXTT3=
EXTT4=
EXTT5=
EXTT6=
EXTT7=
EXTT8=
EXTT9=
PLAYORDER=
